<?xml version="1.0" standalone="no"?>
<!DOCTYPE svg PUBLIC "-//W3C//DTD SVG 20010904//EN"
 "http://www.w3.org/TR/2001/REC-SVG-20010904/DTD/svg10.dtd">
<svg version="1.0" xmlns="http://www.w3.org/2000/svg"
 width="1600.000000pt" height="1488.000000pt" viewBox="0 0 1600.000000 1488.000000"
 preserveAspectRatio="xMidYMid meet">

<g transform="translate(0.000000,1488.000000) scale(0.100000,-0.100000)"
fill="#000000" stroke="none">
<path d="M7405 13091 c-55 -25 -106 -84 -208 -238 -69 -104 -227 -394 -227
-417 0 -3 -11 -29 -24 -58 -53 -118 -222 -598 -280 -796 -16 -51 -47 -135 -71
-185 -54 -114 -69 -172 -94 -365 -11 -84 -30 -190 -42 -235 -19 -72 -28 -89
-74 -137 -64 -68 -139 -170 -241 -325 -74 -114 -121 -172 -136 -168 -17 6 -60
-73 -73 -134 -8 -36 -20 -72 -27 -78 -7 -7 -49 -25 -93 -40 -116 -41 -246
-101 -273 -124 -17 -15 -22 -27 -17 -43 10 -35 73 -126 122 -179 l44 -47 -12
-47 c-14 -54 0 -133 33 -200 30 -58 125 -147 191 -179 32 -16 56 -31 53 -33
-2 -2 -27 8 -56 22 -62 31 -83 28 -74 -12 13 -56 62 -149 104 -201 24 -29 45
-60 46 -70 12 -94 73 -193 179 -295 42 -40 210 -157 226 -157 5 0 9 -7 9 -16
0 -9 30 -46 67 -82 118 -116 135 -184 87 -341 -29 -93 -87 -184 -215 -336
-142 -168 -210 -226 -635 -550 -304 -231 -534 -456 -769 -755 -21 -27 -174
-158 -378 -324 -67 -54 -162 -133 -212 -175 -49 -42 -124 -103 -165 -136 -78
-62 -131 -114 -367 -358 l-142 -147 -66 14 c-50 10 -106 12 -247 5 -243 -10
-428 -42 -628 -109 -47 -15 -116 -38 -155 -50 -92 -30 -140 -54 -195 -100 -25
-20 -65 -47 -90 -60 -69 -35 -257 -162 -333 -224 -80 -68 -148 -150 -187 -228
-30 -62 -69 -115 -135 -188 -93 -102 -270 -364 -355 -524 -89 -167 -111 -271
-86 -400 9 -44 20 -84 24 -88 5 -5 3 -32 -5 -61 -35 -128 -26 -305 23 -467 53
-173 136 -294 250 -362 46 -28 55 -39 73 -89 47 -126 181 -226 371 -275 81
-21 255 -24 288 -5 21 11 30 9 76 -12 65 -31 187 -65 291 -82 67 -11 96 -11
180 1 55 8 117 20 139 26 35 11 40 10 57 -11 37 -45 178 -55 281 -20 57 20
133 57 166 82 7 5 29 11 50 13 20 1 53 6 73 9 29 6 45 1 88 -25 30 -17 73 -35
96 -39 23 -4 77 -29 120 -55 92 -56 242 -117 340 -139 94 -21 285 -31 365 -19
36 6 122 20 192 32 70 12 138 20 151 16 14 -3 36 -25 52 -51 50 -77 167 -116
290 -95 39 6 138 15 220 20 137 8 244 19 490 51 53 7 199 11 352 10 292 -2
336 5 411 60 23 17 51 48 63 69 l22 40 52 -49 c64 -60 95 -77 193 -101 150
-37 263 -50 332 -39 35 5 93 11 129 13 83 3 153 37 232 113 63 60 89 104 89
152 0 17 2 31 5 31 3 0 32 -11 65 -25 39 -16 78 -25 114 -25 64 0 181 25 213
46 12 8 33 14 46 14 39 0 167 70 213 115 82 83 82 148 1 305 -81 157 -147 397
-147 536 l0 75 53 -6 c37 -4 74 0 128 14 l77 20 98 -30 c302 -91 525 -75 724
53 95 61 125 112 38 63 -57 -32 -173 -73 -258 -91 -138 -29 -348 -11 -521 46
-48 16 -136 41 -195 55 -60 15 -110 28 -112 30 -1 1 21 101 48 221 71 302 102
461 147 731 29 181 40 229 50 221 7 -5 41 -8 75 -7 55 3 66 1 86 -19 21 -21
21 -24 7 -45 -8 -12 -15 -41 -15 -64 0 -42 1 -43 28 -36 36 11 198 10 209 0 4
-5 0 -13 -11 -19 -10 -6 -32 -23 -50 -38 -23 -22 -28 -32 -20 -40 18 -18 207
-16 288 4 38 9 72 14 75 10 3 -3 -7 -15 -24 -27 -16 -12 -45 -35 -64 -52 l-34
-30 44 -7 c24 -3 72 -7 107 -7 34 -1 62 -5 62 -10 0 -10 -50 -40 -169 -101
-46 -24 -102 -59 -126 -79 -23 -20 -52 -44 -64 -53 -46 -38 -19 -48 99 -37 47
4 103 11 125 14 28 5 46 2 60 -9 24 -18 27 -17 -120 -54 -103 -26 -110 -29
-113 -54 -3 -24 0 -26 57 -36 91 -16 196 14 250 72 20 22 33 26 78 26 46 0 53
-3 53 -19 0 -22 -45 -63 -101 -91 -117 -60 11 -52 136 8 48 23 89 42 92 42 2
0 3 -10 1 -23 -2 -18 -18 -27 -78 -49 -108 -38 -156 -43 -232 -23 -34 9 -108
20 -163 24 -69 6 -138 20 -222 46 -121 38 -148 39 -159 10 -9 -21 17 -47 86
-88 109 -65 186 -90 291 -95 85 -4 105 -1 174 23 66 23 87 26 139 20 76 -9 96
-19 96 -49 0 -30 -25 -51 -107 -92 -41 -20 -56 -31 -38 -28 44 9 126 36 155
51 14 7 31 13 38 13 17 0 15 -35 -4 -75 -14 -31 -18 -33 -80 -38 -36 -2 -68
-8 -71 -11 -27 -27 105 -42 230 -26 47 6 132 24 189 41 233 69 384 169 440
292 18 40 26 47 51 47 80 0 429 149 569 243 59 39 66 62 29 96 l-28 25 15 59
c10 38 24 67 41 82 171 153 211 202 268 320 31 66 40 102 59 243 4 24 15 38
44 57 86 55 71 114 -26 98 -33 -6 -43 4 -25 23 6 5 28 47 51 94 23 47 57 108
76 135 32 48 64 158 64 221 0 14 6 27 14 30 8 3 31 47 52 97 35 85 38 100 38
194 1 97 0 103 -29 145 -17 23 -45 52 -62 63 -21 14 -35 35 -47 70 -19 60 -60
128 -106 174 l-34 33 23 67 c40 117 15 169 -87 179 -48 4 -51 6 -88 64 -43 67
-103 115 -190 155 -70 31 -223 44 -274 23 -28 -12 -32 -10 -71 25 -122 110
-377 173 -659 162 -153 -6 -239 -22 -323 -61 -29 -13 -80 -26 -117 -29 -89 -8
-207 -47 -288 -95 -37 -23 -84 -44 -104 -47 l-38 -7 0 95 c0 53 -4 99 -10 102
-5 3 -10 18 -10 33 0 80 -85 346 -188 591 l-69 164 14 56 c38 145 85 183 289
236 151 40 281 111 380 210 177 175 265 333 281 499 5 53 13 82 35 115 33 53
34 63 8 99 l-21 28 21 47 c56 125 79 335 45 401 -8 15 -15 38 -15 50 0 12 -8
38 -18 58 -12 23 -16 42 -10 51 12 22 32 279 33 427 0 78 5 136 13 155 12 27
10 72 -4 109 -3 9 11 18 43 26 66 19 148 102 247 252 86 131 93 161 40 166
l-32 3 38 73 c40 78 67 173 56 201 -6 17 -29 17 -83 0 -20 -6 -18 2 28 144
110 340 153 584 165 926 9 253 -20 366 -95 373 -25 3 -38 -3 -61 -28 -31 -33
-38 -33 -20 1 8 14 7 19 -3 19 -15 0 -80 -56 -324 -280 -87 -80 -216 -197
-288 -260 -165 -145 -224 -199 -360 -329 -60 -58 -133 -127 -162 -154 l-51
-50 -194 83 c-207 88 -303 117 -413 127 -123 11 -126 14 -308 376 -163 324
-219 452 -379 872 -35 90 -147 433 -167 512 -21 80 -67 105 -136 74z m-99
-976 c19 -30 48 -162 45 -210 -2 -31 9 -66 18 -61 5 3 16 -16 26 -42 39 -104
199 -387 251 -443 13 -14 24 -32 24 -41 0 -9 11 -29 23 -45 13 -15 30 -43 38
-60 13 -31 49 -47 49 -23 0 6 8 10 17 8 27 -5 26 27 -2 60 -15 18 -24 36 -21
41 4 5 -3 12 -14 16 -20 6 -139 141 -204 232 -51 71 -130 244 -161 349 -22 76
-24 94 -15 143 5 30 10 56 10 57 0 2 12 -4 28 -12 15 -7 32 -14 38 -14 5 0 23
-14 39 -30 36 -38 145 -100 175 -100 12 0 31 11 42 25 15 20 28 25 52 23 26
-2 32 1 34 20 2 12 10 22 17 22 8 0 20 -10 26 -22 7 -13 15 -25 18 -28 4 -3
43 -79 88 -170 112 -227 261 -480 322 -546 28 -31 51 -60 51 -65 0 -9 59 -49
73 -49 12 0 8 35 -5 49 -11 11 -3 12 42 6 78 -10 179 -45 363 -127 267 -119
411 -206 576 -348 164 -142 190 -157 155 -88 -41 79 -216 226 -391 329 -51 30
-93 57 -93 60 0 4 19 22 43 41 23 20 111 99 196 177 120 109 157 138 168 130
17 -15 68 -5 179 37 51 19 95 34 98 34 3 0 6 -29 6 -64 0 -35 3 -78 6 -95 6
-28 10 -31 43 -31 20 0 62 11 93 24 l58 24 10 -39 c8 -28 17 -40 35 -45 20 -5
25 -14 31 -62 7 -55 42 -110 63 -98 5 3 14 -14 20 -39 7 -28 17 -45 26 -45 9
0 15 -9 15 -21 0 -34 22 -99 31 -93 12 7 12 3 -12 -89 -52 -207 -150 -462
-231 -602 -23 -38 -49 -85 -59 -104 l-18 -34 -12 29 c-42 102 -135 260 -180
305 -41 41 -36 15 13 -63 66 -107 106 -195 125 -277 15 -67 31 -525 20 -555
-5 -12 -18 -4 -57 34 -52 51 -169 118 -254 146 -31 10 -67 15 -99 11 -43 -4
-56 -10 -79 -38 -51 -61 -43 -66 118 -72 124 -5 161 -21 271 -116 75 -64 78
-69 81 -114 2 -26 0 -47 -3 -47 -4 0 -21 11 -39 25 -18 14 -40 25 -49 25 -8 0
-48 18 -89 39 -69 38 -176 72 -263 86 -137 21 -560 2 -680 -31 -33 -9 -73 -20
-90 -24 -54 -13 -2 -22 62 -10 81 15 504 40 583 34 36 -2 102 -12 148 -21 68
-13 80 -18 71 -30 -15 -17 1 -93 42 -207 55 -152 103 -204 176 -193 51 9 120
53 152 97 l28 39 7 -45 c7 -56 -7 -162 -33 -240 -11 -32 -34 -99 -51 -149 -35
-104 -37 -115 -12 -85 31 39 45 15 17 -28 -17 -26 -26 -55 -29 -97 -5 -74 -47
-203 -88 -269 -45 -74 -134 -183 -206 -254 -54 -52 -89 -75 -216 -137 -84 -41
-172 -77 -197 -80 -147 -21 -269 -93 -269 -159 0 -9 -7 -16 -15 -16 -8 0 -15
-6 -15 -13 0 -21 33 -111 85 -232 78 -179 135 -344 150 -430 8 -44 24 -107 35
-140 20 -55 53 -300 43 -317 -12 -21 -34 -1 -82 73 -29 44 -55 79 -57 76 -10
-9 17 -151 35 -186 41 -79 171 -171 243 -171 24 0 23 -6 -10 -65 -31 -56 -88
-104 -150 -124 -41 -14 -43 -14 -71 13 -16 15 -31 24 -33 19 -8 -14 -2 -61 10
-75 14 -17 28 -83 37 -168 11 -108 -27 -379 -72 -515 l-16 -49 -15 34 c-40 98
-57 129 -90 173 -20 26 -41 47 -48 47 -10 0 -27 -57 -71 -240 -19 -81 -72
-194 -112 -240 -25 -29 -30 -32 -31 -15 0 32 -50 -33 -101 -132 -43 -84 -44
-87 -44 -184 0 -55 -3 -99 -7 -99 -13 0 -105 78 -139 118 -19 22 -45 61 -59
86 l-24 46 32 65 c18 36 32 73 32 82 0 20 -98 -70 -121 -112 -9 -16 -37 -66
-63 -110 -47 -82 -91 -185 -102 -244 l-7 -34 -33 65 c-18 35 -39 70 -47 76
-12 11 -13 22 -2 80 18 99 28 272 15 272 -5 0 -10 -10 -10 -22 0 -24 -20 -63
-20 -40 0 6 -6 12 -13 12 -10 0 -13 -13 -9 -54 5 -62 -26 -273 -69 -466 -17
-74 -34 -155 -39 -180 -16 -73 -127 -715 -146 -839 -13 -88 -22 -120 -38 -136
-38 -37 -112 -129 -146 -179 l-33 -49 -44 86 c-25 48 -61 104 -81 126 l-37 41
-48 -12 c-38 -9 -58 -23 -97 -65 -49 -54 -110 -161 -110 -195 0 -24 -15 -23
-39 3 -11 12 -24 18 -29 15 -10 -6 -34 51 -47 108 -3 16 -10 25 -14 20 -13
-15 -51 -124 -51 -146 0 -18 -1 -18 -16 -3 -15 15 -16 43 -11 278 3 144 13
372 21 507 9 135 20 353 25 485 8 208 8 242 -5 252 -13 9 -15 49 -15 245 0
201 -2 230 -14 215 -20 -28 -30 -134 -28 -302 7 -510 6 -629 -10 -865 -37
-539 -40 -664 -27 -856 7 -100 9 -195 6 -212 -7 -28 9 -342 19 -388 4 -20 0
-21 -91 -27 l-96 -6 -49 35 c-47 33 -53 34 -136 34 -181 -1 -337 -39 -358 -88
-8 -18 -15 -22 -35 -17 -14 4 -27 8 -29 10 -2 2 13 30 32 62 63 104 231 492
276 639 38 123 94 364 122 526 46 267 14 695 -65 879 -20 45 -21 12 -1 -61 51
-191 67 -585 31 -780 -24 -135 -99 -437 -136 -555 -47 -146 -256 -614 -289
-647 -15 -15 -33 -45 -40 -67 -6 -23 -18 -41 -26 -41 -21 0 -7 -30 18 -39 18
-7 14 -11 -26 -33 -42 -24 -53 -25 -129 -21 -70 5 -86 3 -97 -11 -12 -15 -12
-22 3 -53 9 -19 15 -37 13 -39 -2 -2 -28 3 -58 11 -170 47 -210 45 -243 -16
-22 -40 -18 -73 14 -106 22 -25 20 -28 -30 -38 -19 -4 -59 -16 -88 -27 -56
-21 -82 -54 -82 -103 0 -21 -5 -25 -27 -25 -16 0 -42 -9 -60 -19 l-31 -20 -29
42 -28 42 -3 -37 -3 -36 -52 5 c-29 2 -117 -5 -197 -16 -163 -24 -235 -26
-365 -10 -110 13 -291 72 -435 142 -58 28 -117 51 -132 52 -17 0 -40 12 -60
32 -18 18 -70 68 -116 110 -76 71 -83 75 -89 55 l-5 -22 -32 23 c-104 79 -92
43 19 -57 76 -68 77 -69 54 -82 -13 -7 -27 -10 -31 -8 -4 3 -72 -19 -150 -47
-139 -51 -146 -53 -247 -53 -65 0 -106 4 -108 11 -3 7 -46 9 -131 6 -188 -8
-385 33 -537 110 -33 17 -76 32 -95 34 -19 2 -42 6 -50 8 -8 3 7 -15 34 -40
l48 -45 -73 6 c-152 12 -245 36 -352 92 -82 42 -184 141 -224 217 -15 30 -31
51 -36 48 -15 -9 -89 50 -127 102 -68 90 -113 200 -146 357 -15 68 -18 133
-19 368 l0 285 34 88 c52 136 214 397 371 597 37 47 80 105 96 130 16 24 57
82 92 128 60 81 79 118 47 92 -9 -7 -18 -11 -21 -8 -10 10 138 138 239 206
114 78 412 252 481 282 68 29 135 50 189 61 27 5 63 15 80 24 39 18 86 28 252
55 72 11 179 30 240 42 105 20 112 20 194 4 47 -10 87 -19 90 -21 2 -3 -32
-42 -76 -89 -67 -71 -86 -99 -116 -171 -20 -47 -41 -104 -47 -128 -6 -23 -56
-145 -110 -272 -161 -377 -228 -581 -269 -810 -22 -124 -51 -385 -51 -463 l0
-52 -40 0 c-33 0 -42 4 -49 23 -12 29 -39 53 -84 72 -76 32 -207 10 -207 -35
0 -20 3 -20 88 -14 73 5 95 4 124 -10 39 -19 56 -44 35 -51 -90 -31 -138 -54
-208 -98 -68 -42 -85 -57 -87 -80 -5 -40 18 -35 107 22 42 26 92 56 111 66 35
18 202 77 205 72 9 -10 13 -157 5 -157 -6 0 -10 -7 -10 -15 0 -8 5 -15 10 -15
6 0 10 -20 10 -44 0 -80 11 -84 37 -15 22 59 24 73 18 169 -16 249 40 686 120
940 69 216 234 615 330 798 100 188 145 249 281 376 70 66 132 133 139 149 6
15 67 87 135 159 95 100 164 160 294 258 344 258 585 476 795 720 197 230 386
408 641 605 326 252 392 306 471 385 97 97 184 204 271 332 32 49 63 86 68 83
14 -9 49 45 65 99 9 33 13 80 11 134 -4 72 -2 83 11 78 28 -11 63 -18 63 -13
0 23 -26 47 -109 103 -141 93 -170 121 -113 108 33 -8 25 0 -48 47 -30 20 -88
58 -128 84 -123 80 -248 206 -258 259 -3 20 -1 24 11 19 15 -5 -9 35 -131 223
-38 59 -58 104 -45 104 5 0 25 -7 44 -15 56 -23 77 -20 77 13 0 38 -24 73
-128 191 -97 109 -134 173 -131 224 2 33 -50 148 -111 243 -16 26 -27 51 -23
55 5 4 55 28 113 54 58 26 126 57 152 70 29 15 48 19 50 13 4 -10 91 120 193
287 137 225 282 429 355 500 22 21 30 36 26 51 -3 12 1 41 10 65 17 48 38 143
53 241 24 144 217 781 316 1040 6 14 10 15 26 5 13 -8 19 -23 19 -50 0 -52 27
-106 56 -113 29 -7 28 -4 5 -79 l-18 -60 -7 43 c-10 55 -30 50 -34 -9 -7 -92
40 -169 104 -169 19 0 34 2 34 5 0 3 -14 18 -30 33 l-30 27 15 75 c8 41 20 86
26 99 10 23 10 23 38 -20 15 -24 35 -50 44 -58 15 -12 16 -10 9 20 -14 65 -6
143 24 229 28 82 29 84 32 45 4 -65 11 -84 37 -101 18 -12 29 -13 42 -5 10 6
13 11 7 11 -16 0 -31 45 -38 113 l-6 58 22 -17 c13 -9 32 -32 44 -49z m-209
-167 c-3 -7 -5 -2 -5 12 0 14 2 19 5 13 2 -7 2 -19 0 -25z m3080 -1050 c-3 -7
-5 -2 -5 12 0 14 2 19 5 13 2 -7 2 -19 0 -25z m33 -256 c0 -4 -16 -53 -35
-109 -46 -137 -48 -156 -13 -163 l27 -5 -72 -95 c-157 -207 -216 -270 -257
-270 -18 0 -11 15 41 85 83 113 218 421 204 466 -9 29 19 71 56 84 43 16 49
17 49 7z m-1600 -5758 c-45 -241 -107 -590 -145 -815 -14 -85 -32 -189 -40
-230 -7 -41 -27 -162 -44 -269 -17 -107 -39 -240 -49 -295 -16 -89 -20 -98
-30 -77 -17 31 -34 28 -134 -21 l-86 -42 -7 40 c-6 39 -38 85 -60 85 -19 0
-132 -87 -162 -124 -15 -20 -42 -61 -59 -91 l-31 -56 -20 48 c-18 45 -19 64
-11 303 10 336 0 738 -18 748 -11 6 -10 26 6 112 11 58 30 146 44 195 13 50
27 114 31 143 4 28 10 52 13 51 4 0 25 -37 47 -81 23 -46 53 -91 70 -104 l30
-23 1 62 c0 44 9 82 28 130 25 62 113 227 120 227 2 0 16 -24 30 -54 51 -105
185 -212 254 -204 l26 3 -3 91 c-2 78 1 103 25 170 24 71 35 88 109 165 46 47
86 96 90 108 4 12 9 21 11 18 2 -2 -14 -98 -36 -213z m-921 -1129 c-4 -159
-11 -421 -15 -581 l-7 -292 -38 48 c-21 26 -51 54 -67 61 -26 11 -29 17 -26
44 3 16 13 89 23 161 22 151 135 854 137 851 1 -1 -2 -132 -7 -292z m774 -746
c-15 -4 -54 -9 -85 -11 -62 -5 -65 -2 -52 48 l6 22 80 -27 c71 -23 76 -26 51
-32z m-2026 -728 c80 -59 81 -73 5 -47 -43 15 -141 26 -375 42 -60 4 -87 10
-84 17 8 25 226 57 326 49 46 -4 64 -13 128 -61z"/>
<path d="M6902 11570 c3 -147 2 -160 -14 -160 -33 0 -18 -27 21 -38 21 -7 43
-12 50 -12 16 0 14 20 -4 41 -17 18 -35 149 -35 262 0 41 -4 67 -11 67 -7 0
-10 -49 -7 -160z"/>
<path d="M6864 11326 c-21 -87 110 -216 219 -216 l40 0 -62 32 c-109 56 -171
123 -171 183 0 32 -18 33 -26 1z"/>
<path d="M6920 11329 c0 -41 87 -118 121 -107 9 3 -4 23 -40 61 -51 54 -81 71
-81 46z"/>
<path d="M8406 10523 c38 -115 56 -159 69 -161 20 -4 18 11 -20 141 -19 66
-79 177 -95 177 -3 0 18 -71 46 -157z"/>
<path d="M8209 10592 c44 -56 138 -134 157 -130 28 5 -144 168 -178 168 -5 0
4 -17 21 -38z"/>
<path d="M9365 10317 c-42 -42 -65 -94 -65 -149 0 -43 17 -33 41 22 12 27 37
71 55 97 58 82 39 100 -31 30z"/>
<path d="M9473 10229 c-45 -22 -103 -86 -103 -113 0 -28 18 -18 97 59 79 77
80 91 6 54z"/>
<path d="M8175 10078 c28 -23 74 -66 104 -95 70 -68 90 -70 56 -4 -24 48 -100
102 -183 131 -21 8 -16 1 23 -32z"/>
<path d="M7655 10080 c-27 -4 -80 -9 -117 -9 -76 -1 -118 -14 -118 -36 0 -11
11 -15 44 -15 76 0 287 -41 401 -77 169 -54 362 -132 394 -158 25 -21 32 -23
65 -14 70 19 57 55 -34 98 -30 15 -85 48 -122 74 -78 56 -193 110 -263 125
-75 16 -194 22 -250 12z"/>
<path d="M9380 9758 c-19 -5 -42 -16 -50 -25 -13 -14 -11 -15 20 -9 19 3 78 9
130 13 l95 6 -50 14 c-58 15 -96 15 -145 1z"/>
<path d="M9389 8708 c-23 -29 -46 -64 -52 -78 -6 -14 -40 -55 -75 -92 -60 -62
-66 -65 -93 -56 -64 22 -265 -61 -461 -190 -115 -76 -149 -113 -131 -141 6 -9
20 -16 32 -15 11 0 21 -3 21 -8 0 -5 4 -7 9 -4 4 3 39 -3 77 -13 128 -35 284
-63 316 -56 38 9 104 67 128 116 45 87 71 174 69 226 -2 41 2 58 18 75 11 13
29 37 38 53 10 17 33 46 50 65 35 39 115 152 115 163 0 19 -24 2 -61 -45z
m-209 -283 c9 -11 11 -36 6 -88 -7 -80 -25 -115 -101 -193 l-44 -47 -68 6
c-61 5 -330 61 -340 70 -13 13 21 43 118 101 224 138 391 196 429 151z"/>
<path d="M7998 7072 c-62 -66 -98 -180 -97 -306 l0 -91 29 140 c20 96 40 162
64 210 19 38 34 71 32 72 -1 2 -14 -10 -28 -25z"/>
<path d="M8016 6946 c-26 -62 -39 -182 -26 -237 23 -95 30 -74 45 125 3 44 12
94 20 113 13 31 13 33 -5 33 -13 0 -25 -12 -34 -34z"/>
<path d="M8410 6468 c1 -64 15 -115 46 -159 15 -22 29 -38 31 -36 1 2 -6 29
-17 61 -10 31 -24 83 -31 116 -14 70 -29 79 -29 18z"/>
<path d="M8488 6435 c-11 -11 12 -99 35 -132 30 -44 33 -19 9 66 -17 60 -30
80 -44 66z"/>
<path d="M4980 5184 c-221 -40 -389 -94 -580 -185 -83 -40 -139 -74 -167 -102
-24 -22 -43 -45 -43 -49 0 -4 22 5 48 22 160 98 444 209 642 251 135 29 343
31 472 5 252 -50 491 -179 681 -367 42 -42 77 -74 77 -70 0 16 -58 91 -114
149 -159 165 -324 259 -556 318 -88 22 -132 26 -270 29 -91 2 -176 1 -190 -1z"/>
<path d="M6603 4933 c-4 -21 -8 -130 -8 -243 0 -184 2 -213 23 -285 23 -81 37
-113 45 -105 3 3 -2 75 -9 160 -8 85 -14 227 -15 315 0 88 -2 168 -5 178 -9
28 -23 19 -31 -20z"/>
<path d="M2820 3336 c0 -12 53 -117 62 -122 17 -11 27 17 16 45 -14 38 -78
101 -78 77z"/>
</g>
</svg>
